<?xml version="1.0" encoding="UTF-8"?>
<!DOCTYPE svg PUBLIC "-//W3C//DTD SVG 1.1//EN" "http://www.w3.org/Graphics/SVG/1.1/DTD/svg11.dtd">
<svg version="1.1" width="32" height="32" xmlns="http://www.w3.org/2000/svg">

	<defs>
		<radialGradient id="gradient">
			<stop offset="4%" stop-color="#55C" />
			<stop offset="35%" stop-color="#55D" />
			<stop offset="90%" stop-color="#56B" />
		</radialGradient>
	</defs>

	<path
		d="
			M12,4 Q12,2 14,2 L18,2 Q20,2 20,4 L20,10 Q20,12 22,12
			L28,12 Q30,12 30,14 L30,18 Q30,20 28,20 L22,20 Q20,20 20,22
			L20,28 Q20,30 18,30 L14,30 Q12,30 12,28 L12,22 Q12,20 10,20
			L4,20 Q2,20 2,18 L2,14 Q2,12 4,12 L10,12 Q12,12 12,10 L12,4"
		stroke-width="4" stroke="#CCF" fill="" fill-opacity="0" />
	<path
		d="
			M12,4 Q12,2 14,2 L18,2 Q20,2 20,4 L20,10 Q20,12 22,12
			L28,12 Q30,12 30,14 L30,18 Q30,20 28,20 L22,20 Q20,20 20,22
			L20,28 Q20,30 18,30 L14,30 Q12,30 12,28 L12,22 Q12,20 10,20
			L4,20 Q2,20 2,18 L2,14 Q2,12 4,12 L10,12 Q12,12 12,10 L12,4"
		stroke-width="2" stroke="#46C" fill="url(#gradient)" />

</svg>
